<svg preserveAspectRatio="none" width="100%" height="100%" overflow="visible" style="display: block;" viewBox="0 0 56.4722 59.3388" fill="none" xmlns="http://www.w3.org/2000/svg">
<g id="LogoNew">
<path id="Airbyte Logo" fill-rule="evenodd" clip-rule="evenodd" d="M19.282 7.19484C25.5261 0.0697094 35.8665 -2.02299 44.3585 2.08767C55.648 7.56854 59.7691 21.4949 53.6248 32.2325L39.7878 56.3732C39.0135 57.7185 37.7397 58.715 36.2411 59.1136C34.7425 59.5122 33.169 59.3129 31.8202 58.5406L48.5546 29.2927C53.0254 21.4949 50.0282 11.3802 41.8359 7.39415C35.6916 4.40458 28.1986 5.89936 23.6529 11.0315C21.1552 13.8466 19.7565 17.4839 19.7066 21.2707C19.6566 25.0575 20.9804 28.7197 23.4031 31.6096C23.8277 32.1328 24.3023 32.6062 24.8018 33.0795L15.0359 50.1699C14.6613 50.8425 14.1368 51.4155 13.5373 51.8889C12.9379 52.3622 12.2386 52.711 11.4893 52.9103C10.74 53.1096 9.99066 53.1594 9.21638 53.0598C8.46708 52.9601 7.71778 52.711 7.06839 52.3124L17.6835 33.7522C16.1599 31.5349 15.0609 29.0436 14.4615 26.4028L7.96755 37.813C7.19327 39.1583 5.91946 40.1548 4.42086 40.5534C2.92227 40.952 1.34874 40.7527 0 39.9804L16.8592 10.583C17.5586 9.38719 18.3828 8.24119 19.282 7.19484ZM38.6888 16.5621C42.735 18.9289 44.1337 24.1855 41.7859 28.2713L25.676 56.3981C24.9017 57.7434 23.6279 58.7399 22.1293 59.1386C20.6307 59.5372 19.0572 59.3379 17.7084 58.5656L32.6694 32.3819C31.4706 32.1328 30.3466 31.6096 29.3476 30.8622C28.3735 30.1149 27.5492 29.1682 26.9748 28.0969C26.4003 27.0007 26.0506 25.8049 25.9507 24.5592C25.8758 23.3136 26.0506 22.0928 26.5002 20.9219C26.9498 19.7759 27.6242 18.7296 28.4983 17.8576C29.3725 16.9857 30.4215 16.3379 31.5954 15.9144C32.7444 15.4909 33.9932 15.3414 35.2171 15.466C36.4409 15.5905 37.6148 15.9642 38.6888 16.5871V16.5621ZM32.8193 21.8437C32.5446 22.0679 32.3198 22.3171 32.1449 22.6409C31.8702 23.0894 31.7703 23.6375 31.7953 24.1606C31.8202 24.6838 32.0201 25.207 32.3447 25.6305C32.6694 26.054 33.094 26.3779 33.5936 26.5274C34.0931 26.7018 34.6176 26.7267 35.1421 26.5772C35.6417 26.4277 36.1162 26.1537 36.4409 25.7551C36.7906 25.3565 37.0154 24.8582 37.0903 24.335C37.1652 23.8119 37.0903 23.2638 36.8405 22.7904C36.6158 22.3171 36.2411 21.9185 35.7915 21.6444C35.4918 21.47 35.1671 21.3455 34.8174 21.2956C34.4678 21.2458 34.1181 21.2956 33.7934 21.3704C33.4437 21.47 33.144 21.6195 32.8693 21.8437H32.8193Z" fill="var(--fill-0, white)"/>
</g>
</svg>
